<svg id="SvgjsSvg1006" width="288" height="288" xmlns="http://www.w3.org/2000/svg" version="1.1" xmlns:xlink="http://www.w3.org/1999/xlink" xmlns:svgjs="http://svgjs.com/svgjs"><defs id="SvgjsDefs1007"></defs><g id="SvgjsG1008" transform="matrix(1,0,0,1,0,0)"><svg xmlns="http://www.w3.org/2000/svg" width="288" height="288" version="1.0" viewBox="0 0 2500 2500"><g transform="matrix(.1 0 0 -.1 0 2500)" fill="#ffffff" class="color000 svgShape"><path d="M11852 21429 c-1922 -72 -3774 -769 -5271 -1983 -1501 -1217 -2574-2894 -3040 -4753 -587 -2338 -211 -4818 1037 -6853 1215 -1981 3146 -3414
5377 -3990 1101 -285 2248 -357 3385 -214 1533 193 2992 784 4224 1714 120 91
227 171 237 179 19 13 19 -12 19 -978 l0 -991 355 0 355 0 0 1323 0 1322 -250
250 -249 249 -173 -170 c-227 -223 -441 -406 -713 -611 -1198 -900 -2612
-1455 -4095 -1608 -304 -31 -487 -39 -850 -39 -466 0 -764 22 -1200 85 -2307
336 -4384 1665 -5676 3631 -1335 2031 -1699 4574 -990 6905 655 2151 2179
3954 4195 4962 986 494 1972 762 3141 853 203 16 859 15 1075 0 998 -74 1907
-297 2790 -687 851 -375 1704 -947 2351 -1577 72 -71 135 -128 140 -128 5 0
121 112 257 248 l248 248 -123 120 c-252 245 -538 488 -849 721 -1268 952
-2773 1549 -4346 1723 -476 52 -884 67 -1361 49z" fill="#ffffff" class="color000 svgShape"></path><path d="M11770 20029 c-711 -45 -1355 -171 -2009 -394 -2194 -748 -3939
-2492 -4690 -4688 -217 -634 -345 -1283 -391 -1972 -13 -193 -13 -757 0 -950
77 -1164 402 -2255 966 -3248 1205 -2119 3366 -3532 5774 -3776 581 -59 1180
-52 1749 20 1290 163 2507 657 3560 1444 239 178 468 373 721 613 l95 90 -252
253 -252 252 -108 -103 c-1103 -1055 -2494 -1701 -4013 -1865 -376 -40 -959
-45 -1320 -11 -863 82 -1648 302 -2405 676 -1211 597 -2210 1527 -2895 2695
-115 196 -345 666 -430 878 -449 1122 -595 2319 -430 3507 142 1016 520 2004
1094 2855 820 1218 1992 2131 3376 2629 1028 371 2141 484 3255 330 1400 -193
2728 -839 3768 -1834 l108 -103 252 252 252 253 -95 90 c-608 577 -1192 987
-1908 1341 -857 424 -1727 665 -2712 753 -210 18 -851 27 -1060 13z" fill="#ffffff" class="color000 svgShape"></path><path d="M11760 18629 c-1243 -93 -2400 -543 -3365 -1308 -702 -556 -1268
-1248 -1669 -2041 -364 -718 -567 -1429 -643 -2250 -23 -256 -23 -804 0 -1060
73 -787 262 -1469 597 -2156 294 -603 658 -1122 1124 -1602 826 -849 1893
-1448 3041 -1706 458 -102 862 -146 1358 -146 491 0 856 38 1312 135 1085 233
2136 789 2919 1547 l121 117 -250 250 -250 250 -130 -121 c-390 -362 -777
-635 -1240 -874 -1392 -717 -3031 -795 -4494 -212 -518 206 -987 485 -1456
867 -156 127 -554 521 -687 681 -664 798 -1080 1727 -1222 2732 -43 302 -51
418 -51 768 0 350 8 466 51 767 142 1004 555 1930 1214 2723 223 268 623 645
925 872 685 513 1516 865 2368 1003 881 142 1742 72 2592 -210 745 -247 1406
-642 2000 -1193 l130 -121 250 249 250 250 -75 76 c-41 41 -137 130 -213 196
-1025 899 -2274 1421 -3629 1518 -166 11 -719 11 -878 -1z" fill="#ffffff" class="color000 svgShape"></path><path d="M12684 15967c-105-27-186-96-215-184-18-57-7-163 24-216 58-98 160-142 316-135 112 5 174 30 234 97 68 76 85 207 38 299-26 52-91 107-150 127-64 22-185 28-247 12zM11602 15093l3-698 23-65c56-158 167-255 334-295 76-18 290-18 363-1l50 12-2 89c-1 50-5 141-8 203-6 100-9 113-24 106-9-4-41-9-72-11-48-4-59-2-83 18-15 14-31 41-36 64-5 22-10 316-10 658l0 617-270 0-271 0 3-697zM10506 15714c-190-42-331-117-457-243-168-168-239-348-239-606 0-258 71-438 239-606 130-130 274-205 471-245 117-23 382-16 495 15 89 24 201 74 272 122 57 38 183 159 183 175 0 6-79 82-176 169l-175 157-69-66c-78-75-148-112-236-124-228-30-409 110-432 335-32 305 154 507 432 471 88-12 158-49 236-124l69-66 175 157c97 87 176 163 176 169 0 16-126 137-183 175-71 48-183 98-272 122-107 29-403 37-509 13zM17400 15022c0-658 0-658 62-774 82-153 246-228 502-228 131 0 213 13 294 45l41 17-64 185c-35 101-65 186-68 189-2 2-20-3-40-11-72-30-151-12-175 40-8 17-12 88-12 205l0 180 130 0 130 0 0 195 0 195-130 0-130 0 0 180 0 180-270 0-270 0 0-598zM14003 15335c-61-17-113-42-163-80l-35-26-3 56-3 55-259 0-260 0 0-650 0-650 270 0 270 0 0 308c0 169 5 338 10 376 17 114 60 165 148 174 44 4 52 1 85-28 20-17 42-48 48-68 8-24 13-162 16-399l5-363 268 0 269 0 3 368 3 367 25 44c58 103 193 108 247 9 16-30 18-69 21-410l3-378 269 0 270 0 0 433c0 399-2 440-20 511-48 188-160 306-333 352-69 18-248 18-320-1-80-21-164-65-223-119l-51-45-48 49c-91 93-196 130-360 129-55 0-124-7-152-14zM16135 15331c-211-62-369-228-425-447-15-56-20-111-20-199 0-214 55-361 185-490 123-124 252-175 441-175 146 0 226 23 312 87l32 24 0-45 0-46 255 0 255 0 0 645 0 645-270 0-270 0 0-35 0-36-37 26c-21 14-67 34-102 45-84 26-268 27-356 1zm395-421c75-38 117-138 108-255-8-88-39-150-97-187-41-26-53-29-112-26-54 3-73 9-104 32-102 78-119 286-32 392 17 20 44 42 61 50 47 20 130 17 176-6zM18891 15339c-188-37-357-143-455-286-72-106-99-194-104-338-7-213 42-342 182-480 114-113 245-177 419-205 101-17 361-8 442 15 90 25 196 81 253 133l52 47-140 145-139 145-28-18c-77-50-138-71-219-75-106-6-177 14-224 63-18 19-32 35-29 36 2 0 198 37 434 83l430 82 3 56c11 202-132 430-330 527-125 62-215 81-372 80-72-1-151-5-175-10zm268-379c42-21 94-76 88-93-3-10-377-88-385-82-8 7 20 84 42 116 50 74 172 102 255 59zM12510 14685l0-645 270 0 270 0 0 645 0 645-270 0-270 0 0-645zM17684 13837c-105-27-186-96-215-184-18-57-7-163 24-216 58-98 160-142 316-135 112 5 174 30 234 97 68 76 85 207 38 299-26 52-91 107-150 127-64 22-185 28-247 12zM18280 12785l0-875 260 0 260 0 0 45 0 46 38-31c69-55 132-73 277-78 101-3 145 0 195 13 215 56 383 228 440 451 28 107 28 291 0 398-57 223-224 395-437 450-38 10-103 16-171 16-127 0-213-21-280-70l-42-30 0 270 0 270-270 0-270 0 0-875zm850-19c121-80 124-331 5-422-70-53-198-42-257 23-63 70-79 227-32 321 26 53 63 87 112 103 46 15 130 3 172-25zM19932 12963l3-698 23-65c56-158 167-255 334-295 76-18 290-18 363-1l50 12-2 89c-1 50-5 141-8 203-6 100-9 113-24 106-9-4-41-9-72-11-48-4-59-2-83 18-15 14-31 41-36 64-5 22-10 316-10 658l0 617-270 0-271 0 3-697zM8086 13584c-190-42-331-117-457-243-168-168-239-348-239-606 0-258 71-438 239-606 130-130 274-205 471-245 117-23 382-16 495 15 89 24 201 74 272 122 57 38 183 159 183 175 0 6-79 82-176 169l-175 157-69-66c-78-75-148-112-236-124-228-30-409 110-432 335-32 305 154 507 432 471 88-12 158-49 236-124l69-66 175 157c97 87 176 163 176 169 0 16-126 137-183 175-71 48-183 98-272 122-107 29-403 37-509 13zM16490 12892c0-658 0-658 62-774 82-153 246-228 502-228 131 0 213 13 294 45l41 17-64 185c-35 101-65 186-68 189-2 2-20-3-40-11-72-30-151-12-175 40-8 17-12 88-12 205l0 180 130 0 130 0 0 195 0 195-130 0-130 0 0 180 0 180-270 0-270 0 0-598zM9594 13196c-257-67-438-238-498-472-20-79-21-248-1-333 56-236 251-417 517-481 124-30 324-28 450 4 260 66 442 237 502 472 21 80 21 260 1 339-58 231-245 406-502 471-134 34-336 34-469 0zm348-431c123-82 121-340-5-423-34-23-52-27-107-27-55 0-73 4-107 27-91 60-125 222-70 341 25 54 64 91 115 108 47 15 130 3 174-26zM11463 13205c-61-17-113-42-163-80l-35-26-3 56-3 55-259 0-260 0 0-650 0-650 270 0 270 0 0 308c0 169 5 338 10 376 17 114 60 165 148 174 44 4 52 1 85-28 20-17 42-48 48-68 8-24 13-162 16-399l5-363 268 0 269 0 3 368 3 367 25 44c58 103 193 108 247 9 16-30 18-69 21-410l3-378 269 0 270 0 0 433c0 399-2 440-20 511-48 188-160 306-333 352-69 18-248 18-320-1-80-21-164-65-223-119l-51-45-48 49c-91 93-196 130-360 129-55 0-124-7-152-14zM13915 13213c-63-14-121-39-161-69l-44-34 0 45 0 45-260 0-260 0 0-875 0-875 270 0 270 0 0 270 0 270 42-30c67-49 153-70 280-70 68 0 133 6 171 16 213 55 380 227 437 450 28 107 28 291 0 398-56 221-226 396-436 450-58 15-257 21-309 9zm130-447c121-92 116-342-8-424-34-23-52-27-107-27-87 0-136 30-174 106-36 73-37 190-2 264 40 86 91 117 187 112 55-2 73-7 104-31zM15225 13201c-211-62-369-228-425-447-15-56-20-111-20-199 0-214 55-361 185-490 123-124 252-175 441-175 146 0 226 23 312 87l32 24 0-45 0-46 255 0 255 0 0 645 0 645-270 0-270 0 0-35 0-36-37 26c-21 14-67 34-102 45-84 26-268 27-356 1zm395-421c75-38 117-138 108-255-8-88-39-150-97-187-41-26-53-29-112-26-54 3-73 9-104 32-102 78-119 286-32 392 17 20 44 42 61 50 47 20 130 17 176-6zM21311 13209c-188-37-357-143-455-286-72-106-99-194-104-338-7-213 42-342 182-480 114-113 245-177 419-205 101-17 361-8 442 15 90 25 196 81 253 133l52 47-140 145-139 145-28-18c-77-50-138-71-219-75-106-6-177 14-224 63-18 19-32 35-29 36 2 0 198 37 434 83l430 82 3 56c11 202-132 430-330 527-125 62-215 81-372 80-72-1-151-5-175-10zm268-379c42-21 94-76 88-93-3-10-377-88-385-82-8 7 20 84 42 116 50 74 172 102 255 59zM17510 12555l0-645 270 0 270 0 0 645 0 645-270 0-270 0 0-645zM18000 10655l0-875 269 0 269 0 5 343c3 253 8 352 18 381 30 87 124 147 207 131 46-8 97-60 111-110 7-26 11-167 11-392l0-353 270 0 270 0 0 433c0 351-3 444-15 496-45 188-169 319-346 366-75 20-260 19-330-1-60-18-164-68-174-84-21-34-25 11-25 265l0 275-270 0-270 0 0-875zM10830 11463c-166-29-345-108-455-200-125-105-218-250-266-413-30-106-38-353-15-469 36-177 110-315 227-427 165-156 355-220 627-212 124 4 159 9 227 31 44 15 100 40 125 57l45 30 3-40 3-40 185 0 184 0 0 440 0 440-245 0-245 0 0-206 0-205-57-26c-83-38-233-44-315-13-113 42-193 160-207 305-29 305 123 498 392 496 128 0 224-41 323-136l47-45 76 67c216 189 281 249 281 260 0 17-131 134-193 171-170 102-334 143-569 141-84-1-164-4-178-6zM16980 10762c0-658 0-658 62-774 82-153 246-228 502-228 131 0 213 13 294 45l41 17-64 185c-35 101-65 186-68 189-2 2-20-3-40-11-72-30-151-12-175 40-8 17-12 88-12 205l0 180 130 0 130 0 0 195 0 195-130 0-130 0 0 180 0 180-270 0-270 0 0-598zM12681 11074c-76-20-129-45-183-87l-48-37 0 60 0 60-260 0-260 0 0-645 0-645 270 0 270 0 0 278c0 297 9 390 40 452 43 83 153 128 287 115l73-7 0 236 0 236-67-1c-38 0-92-7-122-15zM13444 11066c-257-67-438-238-498-472-20-79-21-248-1-333 56-236 251-417 517-481 124-30 324-28 450 4 260 66 442 237 502 472 21 80 21 260 1 339-58 231-245 406-502 471-134 34-336 34-469 0zm348-431c123-82 121-340-5-423-34-23-52-27-107-27-55 0-73 4-107 27-91 60-125 222-70 341 25 54 64 91 115 108 47 15 130 3 174-26zM14590 10658c0-334 3-425 15-477 59-247 251-395 548-420 105-9 246 0 317 19 60 16 132 53 173 90 29 25 36 28 47 16 22-27 106-76 166-96 164-57 461-37 619 42 115 58 212 170 257 298 22 63 23 75 26 503l3 437-270 0-270 0-3-392c-3-353-5-396-21-425-53-98-202-75-236 36-7 26-11 160-11 410l0 371-269 0-269 0-4-377c-3-373-3-379-27-426-29-59-67-81-128-74-54 6-95 42-112 96-7 26-11 160-11 410l0 371-270 0-270 0 0-412z" fill="#ffffff" class="color000 svgShape"></path></g></svg></g></svg>